<svg id="visual" viewBox="0 0 960 540" width="960" height="540" xmlns="http://www.w3.org/2000/svg" xmlns:xlink="http://www.w3.org/1999/xlink" version="1.1"><rect x="0" y="0" width="960" height="540" fill="#000000"></rect><path d="M0 129L7.7 140C15.3 151 30.7 173 45.8 156.2C61 139.3 76 83.7 91.2 89C106.3 94.3 121.7 160.7 137 190.7C152.3 220.7 167.7 214.3 183 192.8C198.3 171.3 213.7 134.7 228.8 119C244 103.3 259 108.7 274.2 123.5C289.3 138.3 304.7 162.7 320 150.2C335.3 137.7 350.7 88.3 365.8 84C381 79.7 396 120.3 411.2 126.5C426.3 132.7 441.7 104.3 457 83.2C472.3 62 487.7 48 503 60.5C518.3 73 533.7 112 548.8 141.8C564 171.7 579 192.3 594.2 176C609.3 159.7 624.7 106.3 640 75.5C655.3 44.7 670.7 36.3 685.8 55.3C701 74.3 716 120.7 731.2 138.3C746.3 156 761.7 145 777 139.5C792.3 134 807.7 134 823 146.2C838.3 158.3 853.7 182.7 868.8 172.7C884 162.7 899 118.3 914.2 97.3C929.3 76.3 944.7 78.7 952.3 79.8L960 81L960 0L952.3 0C944.7 0 929.3 0 914.2 0C899 0 884 0 868.8 0C853.7 0 838.3 0 823 0C807.7 0 792.3 0 777 0C761.7 0 746.3 0 731.2 0C716 0 701 0 685.8 0C670.7 0 655.3 0 640 0C624.7 0 609.3 0 594.2 0C579 0 564 0 548.8 0C533.7 0 518.3 0 503 0C487.7 0 472.3 0 457 0C441.7 0 426.3 0 411.2 0C396 0 381 0 365.8 0C350.7 0 335.3 0 320 0C304.7 0 289.3 0 274.2 0C259 0 244 0 228.8 0C213.7 0 198.3 0 183 0C167.7 0 152.3 0 137 0C121.7 0 106.3 0 91.2 0C76 0 61 0 45.8 0C30.7 0 15.3 0 7.7 0L0 0Z" fill="#FFFFFF" stroke-linecap="round" stroke-linejoin="miter"></path></svg>